<?xml version="1.0" encoding="UTF-8"?>
<!DOCTYPE svg PUBLIC "-//W3C//DTD SVG 1.1//EN" "http://www.w3.org/Graphics/SVG/1.1/DTD/svg11.dtd">
<!-- Creator: CorelDRAW X5 -->
<svg xmlns="http://www.w3.org/2000/svg" xml:space="preserve" width="8.26772in" height="11.6929in" shape-rendering="geometricPrecision" text-rendering="geometricPrecision" image-rendering="optimizeQuality" fill-rule="evenodd" clip-rule="evenodd"
viewBox="0 0 8.26772 11.6929"
 xmlns:xlink="http://www.w3.org/1999/xlink">
 <g id="Big_disk">
  <metadata id="CorelCorpID_0Corel-Layer"/>
  <circle fill="none" stroke="#E31E24" stroke-width="0.00787402" cx="0.620972" cy="0.635417" r="0.590551"/>
  <circle fill="none" stroke="#E31E24" stroke-width="0.00787402" cx="0.620972" cy="0.635417" r="0.56335"/>
 </g>
 <g id="Слой_x0020_1">
  <metadata id="CorelCorpID_1Corel-Layer"/>
  <path fill="none" stroke="#E31E24" stroke-width="0.00787402" d="M0.576669 0.951539c0.027878,0.0201339 0.144843,0.0199724 0.177823,-0.0676299 0.00612205,-0.0162677 0.00747244,-0.0441024 0.00747244,-0.0658976 0,-0.0576024 0.030315,-0.108122 0.0758504,-0.13648 0.0246142,-0.0153307 0.0548307,-0.0316732 0.0859646,-0.0385276 -0.00973228,0.013878 -0.0113189,0.0139803 -0.0203268,0.0283346 -0.00129528,0.00206693 -0.00198425,0.00480315 -0.00143701,0.0071811 0.000507874,0.00220472 0.00259843,0.00378346 0.00430709,0.00526378 0.0174567,0.015126 0.0247874,0.0286732 0.0415984,0.0445079 0.00269685,0.00254331 0.00388976,0.00645669 0.00478346,0.0100512l0.00320866 0.0129252c0.000318898,0.00366535 -7.87402e-005,0.00747638 0.00096063,0.0110039 0.00138583,0.00472441 0.00933071,0.022878 0.0124291,0.0267047 0.0051811,0.00640157 0.00504724,0.00718504 0.0105197,0.0133425 0.00108268,0.0012126 0.00167323,0.00638189 0.00138583,0.00798031 -0.00038189,0.0021063 -0.000200787,0.0041811 -0.00138189,0.00595669 -0.00810236,0.0122165 -0.0060315,0.0177795 -0.0111417,0.0272441 -0.0027126,0.00502362 -0.0107323,0.0111969 -0.0158819,0.00832677 -0.0104567,-0.00582283 -0.0235,-0.00492913 -0.0299803,-0.00924803 -0.00450394,-0.00300394 -0.010378,-0.00374409 -0.0157953,-0.00383071 -0.00491339,-7.48031e-005 -0.0101299,0.000850394 -0.0143583,0.00335039 -0.00398819,0.0023622 -0.00785039,0.00615748 -0.0101535,0.0101772 -0.00252362,0.00441339 -0.0050315,0.00873228 -0.00651575,0.0135945 -0.00200787,0.0065748 -0.00363386,0.0136299 -0.00272441,0.0204449 0.000767717,0.00574803 0.00379921,0.011252 0.00755512,0.0156693 0.0046811,0.00550787 0.0107913,0.0098189 0.0171024,0.0133425 0.00754331,0.00420472 0.0157362,0.00731102 0.0240591,0.00961811 0.0105984,0.00293701 0.0313228,0.00567323 0.0422283,0.00620866 0.017437,0.000858268 0.0281693,-0.00133858 0.0395197,-0.0051063 0.00730709,-0.0024252 0.0179843,-0.00622835 0.0231614,-0.0129449 0.0140984,-0.0182795 0.0330787,-0.0256969 0.0460827,-0.0453504 0.0117913,-0.0178228 0.0233583,-0.0329291 0.0299961,-0.0563425 0.00429921,-0.00816929 0.00592126,-0.0169646 0.00975591,-0.0242953 0.00166929,-0.00319291 0.0143425,-0.0175315 0.0174528,-0.0193268 0.00409449,-0.00235827 0.00148425,-0.00155906 0.00615354,-0.00265354 0.00193701,-0.000452756 0.00536614,-0.000629921 0.00748425,0.000807087 0.00129134,0.000874016 0.00179528,0.00200787 0.00393701,0.00337402l0.00776378 0.00495276 -0.00708661 -0.00129921c0.000822835,0.00214173 0.00417323,0.0144488 0.00427165,0.0167362 0.000232283,0.00528346 -0.000358268,0.0103937 -0.00180709,0.0154803 -0.00155512,0.00544488 -0.00899606,0.0196732 -0.0131457,0.0235236 -0.00229921,0.0021378 -0.00845276,0.00242913 -0.0107559,0.00457087 0.00148031,0.00131496 0.000732283,0.000846457 0.0022126,0.00216535 0.00100394,0.000787402 0.0016378,0.0122717 -0.00352362,0.0230866 -0.00704331,0.0147598 -0.0138228,0.0305315 -0.0219291,0.0447362 -0.0104961,0.0183937 -0.0223071,0.035311 -0.033878,0.0530472 -0.0110079,0.016878 -0.0227205,0.0333583 -0.0355551,0.0488937 -0.00993701,0.0120236 -0.0207913,0.0233858 -0.0325945,0.0335827 -0.00643307,0.00555118 -0.0136693,0.0106457 -0.0217323,0.0133346 -0.0110669,0.00368504 -0.0229528,0.00437402 -0.0345709,0.00543307 -0.0101654,0.00092126 -0.0204252,-5.90551e-005 -0.0306181,0.000492126 -0.00497638,0.000271654 -0.0102047,9.84252e-005 -0.014815,0.00197638 -0.00894488,0.00364173 -0.0167913,0.00954724 -0.0249094,0.0137165 -0.069248,0.0595236 -0.159886,0.0958976 -0.25902,0.0958976 -0.0710669,0 -0.137768,-0.0186969 -0.195449,-0.0514291 -0.120106,-0.0681535 -0.28726,-0.166791 -0.304579,-0.338669 -0.00286614,-0.0239843 0.00783465,-0.00473228 0.00591339,-0.0288622 -0.00140157,-0.0176181 -0.0052126,-0.00701969 -0.00579528,-0.0247835 -0.0051811,-0.0118504 -0.0173386,-0.0804606 -0.0211535,-0.0927402 -0.00401969,-0.0129291 -0.00541732,-0.0265433 -0.00764173,-0.0399016 -0.00301181,-0.018063 -0.00640157,-0.0361063 -0.00806693,-0.0543386 -0.00159449,-0.0174843 -0.00678346,-0.0241378 -0.00174016,-0.0525276 0.00503937,-0.0283858 0.0252992,-0.0760394 0.0435157,-0.111012l0.00464173 -0.00349213c0.00413386,-0.00314173 0.00923228,-0.00594094 0.0142205,-0.00760236 0.00709055,-0.0023622 0.0144606,-0.00422441 0.0219134,-0.00479528 0.0076378,-0.00057874 0.0155787,0.000543307 0.0229409,0.00264567 0.00736614,0.00210236 0.0144173,0.00594094 0.0202047,0.0109567 0.00644882,0.00559055 0.0121102,0.0124843 0.015752,0.0202047 0.00416535,0.00883465 0.00721654,0.0148661 0.00803937,0.0245984 0.000905512,0.0107126 0.00227953,0.0212441 6.69291e-005,0.0317638 -0.00205512,0.00979134 -0.00560236,0.0194213 -0.0106142,0.0280787 -0.00764961,0.0132165 -0.016252,0.0261811 -0.0270512,0.0369803 -0.00286614,0.00286614 -0.00811811,0.00327559 -0.0119843,0.00205512 -0.00354331,-0.00111811 -0.00614173,-0.00477165 -0.0075315,-0.00821654 -0.000992126,-0.00245669 -0.000192913,-0.00552756 0.00102362,-0.00787795 0.00220472,-0.00425591 0.00616535,-0.0073622 0.00890551,-0.0112992 0.00457087,-0.0065748 0.00994488,-0.0128031 0.0130118,-0.0202008 0.00285433,-0.00688583 0.00471654,-0.0143898 0.00559843,-0.0217874 0.00152756,-0.0127795 -0.0026063,-0.0235315 -0.00962205,-0.0340236 -0.00788189,-0.0124685 -0.0216811,-0.0207205 -0.0374094,-0.0207205 -0.0195512,0 -0.0375039,0.0123622 -0.0418583,0.0303937l-0.00649606 0.0269173c-0.00413386,0.017126 -0.00366535,0.0352913 -0.00435827,0.0531102 -0.000905512,0.0231102 0.00138583,0.0361575 0.00396063,0.0538583 0.00300394,0.0206339 0.0076378,0.0414606 0.0136378,0.0616732 0.00654331,0.0220236 0.00839764,0.0359331 0.0218031,0.0545906 0.00540157,0.00751575 0.00643701,0.0235 0.0141575,0.0286063 0.00753937,0.00498819 0.0148583,-0.00548819 0.0162126,-0.0135551 0.000814961,-0.00487402 0.00881496,-0.0145945 0.017752,-0.022752 0.0125394,-0.0114409 0.0242047,-0.0127244 0.0378071,-0.0135315 0.012315,-0.000728346 0.0267992,0.00347244 0.0435,0.00520079 0.0627756,0.00648819 0.0930512,0.0216535 0.143764,0.0313189 0.00893307,0.00170079 0.0195866,0.000590551 0.0301929,0.00179134 0.011315,0.00127953 0.0269882,0.00577559 0.033874,0.00920472 0.0169409,0.00844094 0.0158858,0.0450354 -0.0124724,0.0469173 -0.0110591,0.000732283 -0.0233071,0.00132283 -0.0313268,-0.00104724 -0.011815,-0.00349606 -0.0240394,-0.0105236 -0.0294488,-0.0117126 -0.0420551,-0.00925591 -0.0556299,0.00509843 -0.109882,-0.00298819 -0.0106969,-0.00159449 0.0109134,-0.00283858 0.0196811,0.000929134 0.00345669,0.00148031 0.0394094,0.00310236 0.0533543,0.0146614 0.00912205,0.00755512 0.00552362,0.00791339 0.0089252,0.0209724 0.00337402,0.0129567 0.00129921,0.0203268 0.000834646,0.0323701 -0.000370079,0.00968504 -0.0225945,0.0304409 -0.0149409,0.0363819 0.00980709,0.00761417 0.0280866,0.0104764 0.0342008,0.0103976 0.0225354,-0.000287402 0.0275748,0.00632677 0.0491614,0.0114331 0.0206299,0.00488189 0.043,0.0227126 0.0594409,0.0361063 0.027252,0.0221969 0.0420709,0.0360236 0.0720118,0.0576457z"/>
  <circle fill="none" stroke="#E31E24" stroke-width="0.00787402" cx="1.05155" cy="0.769492" r="0.0360108"/>
 </g>
</svg>
