<?xml version="1.0" encoding="UTF-8"?>
<!DOCTYPE svg PUBLIC "-//W3C//DTD SVG 1.1//EN" "http://www.w3.org/Graphics/SVG/1.1/DTD/svg11.dtd">
<!-- Creator: CorelDRAW X7 -->
<svg xmlns="http://www.w3.org/2000/svg" xml:space="preserve" {#width="30mm" height="30mm"#} version="1.1" preserveAspectRatio="xMidYMid" style="shape-rendering:geometricPrecision; text-rendering:geometricPrecision; image-rendering:optimizeQuality; fill-rule:evenodd; clip-rule:evenodd"
viewBox="0 0 3090 3090"
 xmlns:xlink="http://www.w3.org/1999/xlink">
 <defs>
  <style type="text/css">
   <![CDATA[
    .str0 {stroke:white;stroke-width:20}
    .fil0 {fill:white}
    .fil_none {fill:none}
   ]]>
  </style>
 </defs>
 <g id="Слой_x0020_1">
  <metadata id="CorelCorpID_0Corel-Layer"/>
  <g id="_858865176000">
   <circle fill="none" stroke="white" stroke-width="80" cx="1500" cy="1500" r="1480"/>
{#   <circle class="fil0 str0" cx="1500" cy="1500" r="1431"/>#}
   <path class="fil0 str0" d="M1387 2303c71,51 368,51 452,-172 16,-41 19,-112 19,-167 0,-147 77,-275 193,-347 62,-39 139,-80 218,-98 -25,36 -29,36 -51,72 -4,5 -6,12 -4,18 1,6 6,10 11,14 44,38 63,73 105,113 7,6 10,16 13,25l8 33c1,10 0,19 2,28 4,12 24,58 32,68 13,16 13,18 26,34 3,3 5,16 4,20 -1,6 -1,11 -4,15 -20,31 -15,45 -28,70 -7,12 -27,28 -40,21 -27,-15 -60,-13 -76,-24 -12,-7 -27,-9 -40,-10 -13,0 -26,3 -37,9 -10,6 -20,16 -26,26 -6,11 -12,22 -16,34 -5,17 -9,35 -7,52 2,15 10,29 19,40 12,14 27,25 43,34 20,11 40,19 62,24 27,8 79,15 107,16 44,2 71,-3 100,-13 19,-6 46,-16 59,-33 36,-46 84,-65 117,-115 30,-45 59,-84 76,-143 11,-21 15,-43 25,-62 4,-8 37,-44 44,-49 11,-6 4,-4 16,-7 5,-1 14,-1 19,3 3,2 5,5 10,8l20 13 -18 -4c2,6 10,37 11,43 0,13 -1,26 -5,39 -4,14 -23,50 -33,60 -6,5 -22,6 -28,12 4,3 2,2 6,5 2,2 4,31 -9,59 -18,37 -35,77 -56,113 -26,47 -56,90 -86,135 -28,43 -57,85 -90,124 -25,31 -53,60 -83,86 -16,14 -35,27 -55,33 -28,10 -58,12 -88,14 -26,3 -52,0 -78,1 -12,1 -26,1 -37,6 -23,9 -43,24 -64,34 -175,152 -406,244 -657,244 -181,0 -350,-48 -497,-131 -305,-173 -730,-423 -774,-860 -7,-61 20,-12 16,-73 -4,-45 -14,-18 -15,-63 -13,-30 -44,-205 -54,-236 -10,-33 -14,-67 -19,-101 -8,-46 -17,-92 -21,-138 -4,-45 -17,-61 -4,-134 13,-72 64,-193 110,-281l12 -9c11,-8 24,-15 36,-20 18,-6 37,-10 56,-12 19,-1 39,2 58,7 19,5 37,15 51,28 17,14 31,31 40,51 11,22 19,38 21,62 2,28 6,54 0,81 -5,25 -14,50 -27,71 -19,34 -41,67 -69,94 -7,8 -20,9 -30,6 -9,-3 -16,-12 -19,-21 -3,-6 -1,-14 2,-20 6,-11 16,-19 23,-29 12,-17 25,-32 33,-51 7,-18 12,-37 14,-56 4,-32 -6,-59 -24,-86 -20,-32 -55,-53 -95,-53 -50,0 -95,32 -107,78l-16 68c-11,43 -9,90 -11,135 -2,59 3,92 10,137 8,52 19,105 35,156 16,56 21,92 55,139 14,19 16,60 36,73 19,12 38,-14 41,-35 2,-12 23,-37 45,-58 32,-29 62,-32 96,-34 32,-2 68,9 111,13 159,17 236,55 365,80 23,4 50,1 77,4 28,4 68,15 86,24 43,21 40,114 -32,119 -28,2 -59,3 -80,-3 -30,-9 -61,-27 -74,-30 -107,-23 -142,13 -280,-7 -27,-4 28,-7 50,2 9,4 101,8 136,37 23,20 14,21 23,54 8,33 3,51 2,82 -1,25 -58,77 -38,92 25,20 71,27 87,27 57,-1 70,16 125,29 52,12 109,58 151,92 69,56 106,91 182,146z"/>
   <circle class="fil0 str0" cx="2594" cy="1841" r="91"/>
  </g>
 </g>
</svg>
